<?xml version="1.0" encoding="iso-8859-1"?>
<!-- Generator: Adobe Illustrator 19.0.0, SVG Export Plug-In . SVG Version: 6.00 Build 0)  -->
<svg version="1.1" id="Layer_1" xmlns="http://www.w3.org/2000/svg" xmlns:xlink="http://www.w3.org/1999/xlink" x="0px" y="0px"
	 viewBox="0 0 427.333 427.333" style="enable-background:new 0 0 427.333 427.333;" xml:space="preserve">
<g>
	<g>
		<path d="M391.386,213.333c-0.118,98.096-79.611,177.589-177.707,177.707c-98.027,0.159-177.622-79.179-177.78-177.206
			c-0.049-30.505,7.764-60.508,22.687-87.114l-25.813-25.813c-62.444,99.912-32.069,231.528,67.843,293.972
			s231.528,32.069,293.972-67.843c21.305-34.089,32.545-73.503,32.425-113.702H391.386z"/>
	</g>
</g>
<g>
	<g>
		<path d="M363.013,0v74.027C359.386,70.4,355.76,54.4,351.92,51.2C265.403-22.306,136.475-15.179,58.586,67.413L85.68,94.72
			c65.057-70.627,175.051-75.141,245.678-10.084c7.331,6.753,14.068,14.124,20.136,22.031h-95.147v42.667H405.68V0H363.013z"/>
	</g>
</g>
<g>
</g>
<g>
</g>
<g>
</g>
<g>
</g>
<g>
</g>
<g>
</g>
<g>
</g>
<g>
</g>
<g>
</g>
<g>
</g>
<g>
</g>
<g>
</g>
<g>
</g>
<g>
</g>
<g>
</g>
</svg>
